<?xml version="1.0" encoding="utf-8"?>
<!-- Generator: Adobe Illustrator 26.1.0, SVG Export Plug-In . SVG Version: 6.00 Build 0)  -->
<svg version="1.1" xmlns="http://www.w3.org/2000/svg" xmlns:xlink="http://www.w3.org/1999/xlink" x="0px" y="0px"
	 viewBox="0 0 4149.78 4593.87" style="enable-background:new 0 0 4149.78 4593.87;" xml:space="preserve">
<style type="text/css">
	.st0{fill:none;stroke:#000000;stroke-width:14;stroke-miterlimit:10;}
	.st1{fill:#FFFFFF;stroke:#231F20;stroke-miterlimit:10;opacity:0.5}
	.st2{font-family:'MyriadPro-Regular';}
	.st3{font-size:75.2971px;}

</style>
   

<g id="Layer_1">
	<g>
		<defs>
			<rect id="SVGID_1_" width="4149.78" height="4593.87"/>
		</defs>
		<clipPath id="SVGID_00000078736112771791535500000007814377162868302246_">
			<use xlink:href="#SVGID_1_"  style="overflow:visible;"/>
		</clipPath>
		<g style="clip-path:url(#SVGID_00000078736112771791535500000007814377162868302246_); ">
				<image style="overflow:visible;  "   width="6260" height="8054"  xlink:href="./Golarion_map_web.jpeg"  transform="matrix(3.4793 0 0 3.4793 -14968.2188 -931.6869)">
			</image>
		</g>
	</g>
</g>
<g id="Rutas">
 <path id="kenabres-fortPortolmaeus" class="st0" d="M881.75,872.27c-1.71,28.75-8.4,45.48,12.34,72.25c20.75,26.77-7.37,99.71-7.37,99.71l-54.2,50.19c0,0-7.42,4.13,39.79,28.17"/>
 <path id="kenabres-boudor" class="st0" d="M820.36,804.08c0,0-62.12-37.57-131.72-20.84c-4.02,0.67-40.15,40.2,13.38,89.03c-4.68,44.81,4.02,74.93,16.73,90.99c0,72.28-67.59,78.3-14.05,145.22c-78.3-1.34-131.17,10.04-131.17,10.04"/>
 <path id="fortPortolmaeus-starKeep" class="st0" d="M883.38,1180.56c0,0-73.61,14.93-121.79,51.74c-84.99,95.03-110.98,108.41-152.19,117.78c-41.21,9.37-83.38,27.44-67.98,97.04"/>
 <path id="starKeep-nerosyan"  class="st0" d="M477.74,1490.61c-33.88,19.2-114.07,5.86-127.62,88.2c-18.07,78.95-99.39,62.01-59.86,121.87c39.53,59.86,32.75,88.09,2.26,119.72c-30.49,31.62,32.75,91.48-24.85,124.24c-54.21,36.14-23.72,117.46-119.72,110.68c30.49,62.12,147.95,10.16,147.95,10.16"/>
 <path id="nerosyan-starfall" class="st0" d="M379.48,2076.77c70.02,46.31,163.76,50.86,176.19,9.06c19.2-44.07,167.15,9.83,167.15,9.83c58.73-14.37,65.51,62.43,147.95,60.18s5.65,30.49,111.81,29.36c83.58,49.69-15.81,236.05-15.81,236.05"/>
 <path id="kenabres-egede" class="st0" d="M2768.18,977.86c-2.26-60.99-60.99-54.21-57.6-158.12s-76.8-289.13-168.28-288c-91.48,1.13-198.78-25.98-325.27,27.11c-126.49,53.08-308.33-13.55-308.33-13.55s-196.52-85.84-379.48-11.29s-169.41,27.11-249.6,126.49s-344.47,93.74-344.47,93.74"/>
 <path id="egede-hernesOak" class="st0" d="M2716.23,1045.62l-411.1,170.37c0,0-49.69-0.96-58.73-19.03c-9.04-18.07-40.66-81.32-124.24-92.61c-7.91-36.14-13.22-46.53-47.27-70.14c-47.6-6.66-117.62,71.27-117.62,71.27"/>
 <path id="egede-chessed" class="st0" d="M2751.24,1072.73c0,0-147.95,573.74-60.99,618.92"/>
 <path id="portIce-sunderHorn" class="st0" d="M3976.65,1571.92c0,0-65.51,88.09-81.32,94.87c-72.28,32.75-101.65,181.51-204.42,215.55c-102.78,34.05-129.88,88.26-129.88,88.26"/>
 <path id="sunderHorn-chitterhome" class="st0" d="M3041.5,2079.03c0,0,129.88-39.53,178.45-92.61c48.56-53.08,260.89,11.29,260.89,11.29"/>
 <path id="scrapwall-hollowGarden" class="st0" d="M2127.81,2447.78l-130.85-66.07c0,0-296.07-69.46,91.88-76.24c387.95-6.78,299.38-93.18,299.38-93.18"/>
 <path id="chitterhome-falheart" class="st0" d="M3030.77,2130.98c0,0,390.37,298.16,482.34,535.34"/>
 <path id="falheart-castleOfKnives" class="st0" d="M3591.04,2710.37l163.12,123.67c0,0-33.88,77.93,0,120.28c20.33,42.35-20.33,84.71,6.78,120.28c-40.66,83.01-105.04,106.73-59.29,155.86c3.39,67.76-25.65,140.61-25.65,140.61s23.96,15.25,45.98,10.16c22.02-5.08-64.36,88.09-64.36,88.09"/>
 <path id="kuratown-marstol" class="st0" d="M531.95,3073.65c0,0,215.15,192.38,462.49,156.81"/>
 <path id="marstol-iadenveigh" class="st0" d="M1063.9,3269.35v31.28l27.11,28.09c0,0-88.09,30.49-47.44,44.05c40.66,13.55,84.15,49.13,18.36,74.54c-25.55,16.94,13.83,92.83,13.83,92.83"/>	
 <path id="iadenveigh-deadbridge" class="st0" d="M1121.5,3556.17l33.88,28.36c0,0,64.38-6.78,83.01,57.6c18.64,64.38,23.72,76.12,8.47,91.42c-15.25,15.31,10.16,40.72-27.11,96.62c-37.27,54.21,35.58,30.49,106.73,0c64.38,13.55,105.04,144.73,50.82,207.04"/>
 <path id="iadenveigh-chokingTower" class="st0" d="M1570.62,3321.94c0,0,43.88,167.72,8.3,171.11s-116.89-19.45-133.83-14.81c-16.94,4.64-98.26,0.92-138.92,34.97c-40.66,34.05-192.2,26.93-192.2,26.93"/>	
 <path id="chokingTower-blackpipe" class="st0" d="M1611.1,3321.94c0,0-8.47,157.55,89.79,204.99c98.26,47.44,145.69,73.84,152.47,91.13c62.68,7.13,221.53-8.12,221.53-8.12"/>	
 <path id="blackpipe-hajoth" class="st0" d="M2425.97,3755.64l-67.76,18.64l-132.14-9.32l-18.64-31.4c0,0-44.05,22.08-72.85,10.22c-28.8-11.86-35.58-152.47-35.58-152.47"/>	
 <path id="blackpipe-blackHorse" class="st0" d="M2142.91,3513.21c0,0,18.78-43.88,18.78-65.9c30.49-25.41-1.69-62.68,11.86-81.32s60.99,11.86,42.35-225.32s172.32-144,172.32-144"/>
 <path id="blackHorse-mormouth" class="st0" d="M2355.91,2966.64c0,0,266.55-129.38,358.27-91.68c86.6,35.6,89.26,27.74,183.35,42.22c151.99,139.93-13.27,118.22,13.27,201.45c74.79,85.65,12.06,138.72,0,158.02c-12.06,19.3-6.03,107.36-6.03,107.36"/>
 <path id="chessed-scrapwall" class="st0" d="M2597.24,1723.51c0,0-102.85,46.87-100.24,140.6c22.13,91.13,46.87,59.68-59.89,147.01c-106.75,87.33-40.19,138.1-40.19,138.1"/>
 <path id="scrapwall-chitterhome" class="st0" d="M2425.4,2241.65l61.44,21.47c0,0,27.09-42.3,67.45-43.61c20.83-74.21-29.94-100.02,70.3-140.49c100.24-31.36,51.53-71.71,126.66-76.92c47.79-67.7,53-62.49,84.24-65.74c39.06-18.88,62.51-17.58,98.3-16.27c35.79,1.3,85.26,118.12,85.26,118.12"/>
 <path id="fortPortolmaeus-scrapwall" class="st0" d="M975.81,1180.56c0,0-9.04,46.9,18.64,53.68c27.67,6.78,124.8,15.59,165.46-44.16c40.66-59.75,47.44,66.75,198.78-41.68c173.93,250.73,517.27,195.7,347.86,444.58s368.35,407,368.35,407s83.41,1.61,92.45,22.26c86.39,7.1,38.33,77.13,98.23,85.03c59.89,7.91,15.01,118.59,110.86,114.07"/>	
 <path id="deadbridge-hajoth" class="st0" d="M1383.01,4072.53c0,0,149.78,187.97,227.91,114.96c78.13-73.02,416.38-183.31,463.97-88.55c47.59,94.76-33.53,13.98,24.12,97.87c57.65,83.89-42.11,15.54,0,100.98c42.11,85.44,234,111.85,256.9,41.94c22.9-69.91,88.84-62.14,110.24-187.97c21.4-125.83,203.31-110.3,193.14-201.96c-10.17-91.66-72.31-29.52-84.74-96.32c-12.43-66.8-91.66-56.79-91.66-56.79"/>
 <path id="hajoth-castleOfKnives" class="st0" d="M2521.73,3749.4c0,0,132.05-29.52,177.1,18.64c45.05,48.16,102.53-28.59,110.3-34.49c7.77-5.9,69.91,43.01,73.02-149.23c7.77-28.16,71.46-89.34,141.37-28.16c69.91,61.18,229.92,15.96,335.56,100.71c85.44-48.85,62.14,17.95,102.53-134.29c40.39-152.24,180.21-21.75,180.21-21.75"/>	
 <path id="hollowGarden-chokingTower" class="st0" d="M2064.08,2522.15c0,0,139.58,208.62,132.85,223.77c-6.73,15.14-127.74,16.82-132.85,10.09c-5.11-6.73-43.32-21.87-67.12-11.78c-23.8,10.09-190.36-20.19-257.66,1.68c-67.3,21.87-149.72-13.27-240.58-12.52c-90.86,0.74-115.33,14.2-115.71,17.57c-0.39,3.36-87.07,288.07,187.61,518.38"/>	
 <path id="kuratown-deadbridge" class="st0" d="M1311.4,4088.81c0,0-17.56,35.54-21.16,81.99c-3.61,46.44-38.88,103.73-28.21,130.04c10.67,26.32-24.94,30.96-24.94,30.96s-300.34-27.87-325.11-35.61s-55.73-9.29-55.73-9.29s-96.31-66.57-93.05-137.78c3.26-71.21-22.9-49.98-28.4-110.91c0,0,80.76-6.75-77.7-125.95c-158.47-119.21-220.39-157.91-220.39-157.91l-86.7,19.93c0,0,24.88-93.51,29.47-118.65c4.59-25.13,30.91-55.51,51.03-64.32c20.13-8.81,13.93-66.09,37.16-100.15c23.22-34.06,20.13-77.97,92.89-90.85c72.76-12.88,0-57.77,128.5-90.28c0,0-81.52-178.65-170.29-191.97"/>	
</g>

<g id="Nodos">
	<circle id="nerosyan" class="st1" cx="345.6" cy="2029.34" r="77.93" />
	<circle id="starfall" class="st1" cx="948.7" cy="2459.64" r="77.93"/>
	<circle id="blackHorse" class="st1" cx="2331.65" cy="3013.57" r="77.93"/>
	<circle id="chessed" class="st1" cx="2659.76" cy="1714.23" r="77.93"/>
	<circle id="scrapwall" class="st1" cx="2388.22" cy="2185.19" r="77.93"/>
	<circle id="hollowGarden" class="st1" cx="2074.89" cy="2459.64" r="77.93"/>
	<circle id="chitterhome" class="st1" cx="3011.71" cy="2089.05" r="77.93"/>
	<circle id="chokingTower" class="st1" cx="1570.62" cy="3269.35" r="77.93"/>
	<circle id="marstol" class="st1" cx="1036.04" cy="3222.7" r="77.93"/>
	<circle id="iadenveigh" class="st1" cx="1054.19" cy="3540.14" r="77.93"/>
	<circle id="kuratown" class="st1" cx="501.46" cy="3073.65" r="77.93"/>
	<circle id="deadbridge" class="st1" cx="1346.25" cy="4037.22" r="77.93"/>
	<circle id="hajoth" class="st1" cx="2466.15" cy="3733.55" r="77.93"/>
	<circle id="blackpipe" class="st1" cx="2108.42" cy="3556.17" r="77.93"/>
	<circle id="castleOfKnives" class="st1" cx="3657.61" cy="3478.24" r="77.93"/>
	<circle id="mormouth" class="st1" cx="2933.78" cy="3435.28" r="77.93"/>
	<circle id="falheart" class="st1" cx="3563.88" cy="2655.47" r="77.93"/>
	<circle id= "portIce" class="st1" cx="4006.51" cy="1515.04" r="77.93"/>
	<circle id="sunderHorn" class="st1" cx="3513.11" cy="1960.28" r="77.93"/>
	<circle id="egede" class="st1" cx="2768.18" cy="1016.26" r="77.93"/>
	<circle id="hernesOak" class="st1" cx="1928.52" cy="1112.14" r="77.93"/>
	<circle id="fortPortolmaeus" class="st1" cx="948.7" cy="1138.06" r="77.93"/>
	<circle id="boudor" class="st1" cx="531.46" cy="1138.06" r="77.93"/>
	<circle id="starKeep" class="st1" cx="544.42" cy="1500.88" r="77.93"/>
	<circle id="kenabres" class="st1" cx="897.88" cy="796.02" r="77.93"/>
</g>
<!--<g id="Peso">-->
<!--	<g>-->
<!--		<text transform="matrix(1 0 0 1 665.6844 966.4842)" class="st2 st3">50</text>-->
<!--	</g>-->
<!--	<g>-->
<!--		<text transform="matrix(1 0 0 1 3735.5422 3126.0425)" class="st2 st3">50</text>-->
<!--	</g>-->
<!--	<g>-->
<!--		<text transform="matrix(1 0 0 1 2662.8672 1422.9475)" class="st2 st3">50</text>-->
<!--	</g>-->
<!--	<text transform="matrix(1 0 0 1 848.2433 1016.2552)" class="st2 st3">40</text>-->
<!--	<g>-->
<!--		<text transform="matrix(1 0 0 1 657.0987 1332.6133)" class="st2 st3">40</text>-->
<!--	</g>-->
<!--	<g>-->
<!--		<text transform="matrix(1 0 0 1 1476.5106 2488.8845)" class="st2 st3">40</text>-->
<!--	</g>-->
<!--	<g>-->
<!--		<text transform="matrix(1 0 0 1 1819.3247 3634.0999)" class="st2 st3">40</text>-->
<!--	</g>-->
<!--	<g>-->
<!--		<text transform="matrix(1 0 0 1 3327.0864 2995.7253)" class="st2 st3">40</text>-->
<!--	</g>-->
<!--	<g>-->
<!--		<text transform="matrix(1 0 0 1 3760.9338 1819.7949)" class="st2 st3">20</text>-->
<!--	</g>-->
<!--	<g>-->
<!--		<text transform="matrix(1 0 0 1 3198.5605 2011.1184)" class="st2 st3">20</text>-->
<!--	</g>-->
<!--	<g>-->
<!--		<text transform="matrix(1 0 0 1 2690.2534 2022.2325)" class="st2 st3">20</text>-->
<!--	</g>-->
<!--	<g>-->
<!--		<text transform="matrix(1 0 0 1 3261.1699 2405.3953)" class="st2 st3">40</text>-->
<!--	</g>-->
<!--	<g>-->
<!--		<text transform="matrix(1 0 0 1 2486.8323 1919.4299)" class="st2 st3">20</text>-->
<!--	</g>-->
<!--	<g>-->
<!--		<text transform="matrix(1 0 0 1 2722.2195 2914.645)" class="st2 st3">20</text>-->
<!--	</g>-->
<!--	<g>-->
<!--		<text transform="matrix(1 0 0 1 2124.4197 2263.1233)" class="st2 st3">5</text>-->
<!--	</g>-->
<!--	<g>-->
<!--		<text transform="matrix(1 0 0 1 2121.0312 3321.9448)" class="st2 st3">20</text>-->
<!--	</g>-->
<!--	<g>-->
<!--		<text transform="matrix(1 0 0 1 1473.7253 1313.8361)" class="st2 st3">80</text>-->
<!--	</g>-->
<!--	<g>-->
<!--		<text transform="matrix(1 0 0 1 2310.2896 1215.9878)" class="st2 st3">60</text>-->
<!--	</g>-->
<!--	<g>-->
<!--		<text transform="matrix(1 0 0 1 1424.1782 3513.2092)" class="st2 st3">60</text>-->
<!--	</g>-->
<!--	<g>-->
<!--		<text transform="matrix(1 0 0 1 1761.2007 2755.0215)" class="st2 st3">90</text>-->
<!--	</g>-->
<!--	<g>-->
<!--		<text transform="matrix(1 0 0 1 1957.2667 4087.9788)" class="st2 st3">80</text>-->
<!--	</g>-->
<!--	<g>-->
<!--		<text transform="matrix(1 0 0 1 3160.8381 3619.9617)" class="st2 st3">80</text>-->
<!--	</g>-->
<!--	<g>-->
<!--		<text transform="matrix(1 0 0 1 2064.0784 597.0714)" class="st2 st3">70</text>-->
<!--	</g>-->
<!--	<g>-->
<!--		<text transform="matrix(1 0 0 1 257.9565 1714.2305)" class="st2 st3">70</text>-->
<!--	</g>-->
<!--	<g>-->
<!--		<text transform="matrix(1 0 0 1 1215.6956 3811.4844)" class="st2 st3">70</text>-->
<!--	</g>-->
<!--	<g>-->
<!--		<text transform="matrix(1 0 0 1 697.7572 2117.2041)" class="st2 st3">30</text>-->
<!--	</g>-->
<!--	<g>-->
<!--		<text transform="matrix(1 0 0 1 2186.3521 3774.2734)" class="st2 st3">30</text>-->
<!--	</g>-->
<!--	<g>-->
<!--		<text transform="matrix(1 0 0 1 731.6408 3234.8518)" class="st2 st3">30</text>-->
<!--	</g>-->
<!--	<g>-->
<!--		<text transform="matrix(1 0 0 1 579.3871 3901.2034)" class="st2 st3">40</text>-->
<!--	</g>-->
<!--	<g>-->
<!--		<text transform="matrix(1 0 0 1 1121.5038 3400.3118)" class="st2 st3">10</text>-->
<!--	</g>-->
<!--</g>-->
</svg>
